<?xml version="1.0" standalone="no"?>
<!DOCTYPE svg PUBLIC "-//W3C//DTD SVG 20010904//EN"
 "http://www.w3.org/TR/2001/REC-SVG-20010904/DTD/svg10.dtd">
<svg version="1.0" xmlns="http://www.w3.org/2000/svg"
 width="740.000000pt" height="740.000000pt" viewBox="0 0 740.000000 740.000000"
 preserveAspectRatio="xMidYMid meet">

<g transform="translate(0.000000,740.000000) scale(0.100000,-0.100000)"
fill="#000000" stroke="none">
<path d="M3236 4728 c-10 -14 -16 -44 -16 -75 l0 -53 -72 0 c-111 0 -178 -46
-198 -136 -5 -21 -10 -253 -10 -515 0 -467 0 -477 21 -503 l20 -26 335 0 334
0 0 -64 c0 -74 25 -122 77 -146 29 -13 33 -20 33 -55 0 -34 -5 -43 -29 -58
-51 -30 -61 -68 -61 -232 l0 -147 29 -29 29 -29 325 0 325 0 31 26 31 26 0
154 c0 164 -7 197 -51 228 -20 14 -21 21 -22 318 -2 373 2 358 -155 488 l-102
85 2 80 3 80 230 5 c242 5 249 7 297 57 44 46 48 71 48 297 0 194 -2 214 -18
229 -17 16 -81 17 -720 17 l-701 0 -15 -22z m1384 -233 c0 -205 -6 -232 -60
-260 -37 -19 -63 -19 -101 1 -42 21 -59 68 -59 159 0 46 -6 87 -14 103 -19 36
-65 78 -99 91 -19 7 -195 11 -513 11 l-484 0 0 40 0 40 665 0 665 0 0 -185z
m-550 31 c0 -2 -7 -20 -15 -39 -12 -30 -15 -94 -15 -353 l0 -316 -53 45 c-64
55 -114 71 -174 56 -76 -20 -130 -107 -114 -181 12 -50 23 -67 100 -143 115
-113 140 -105 -354 -105 l-425 0 0 484 c0 479 0 484 21 510 12 15 31 32 43 36
20 8 986 14 986 6z m200 -11 c50 -26 60 -51 60 -145 0 -56 5 -95 15 -114 8
-15 15 -30 15 -32 0 -3 -55 -3 -122 -2 l-123 3 0 117 c0 110 1 118 25 143 42
46 82 55 130 30z m-80 -692 c38 -31 76 -71 85 -89 12 -26 15 -82 15 -323 l0
-291 -227 2 -228 3 -5 65 -5 65 -39 13 c-54 17 -66 37 -63 102 l2 55 75 0 75
0 3 -76 c3 -86 16 -107 70 -114 67 -8 95 59 31 72 l-29 6 0 98 c0 54 -5 110
-11 126 -6 15 -46 65 -90 109 -70 72 -79 86 -79 118 0 50 36 86 85 86 32 0 49
-13 166 -122 144 -136 168 -154 192 -145 35 13 19 53 -43 110 l-60 54 0 66 c0
37 3 67 6 67 3 0 36 -26 74 -57z m159 -796 c20 -23 21 -32 19 -158 l-3 -134
-299 -3 c-212 -2 -303 1 -312 9 -11 9 -14 43 -14 136 0 118 1 125 25 148 l24
25 269 0 269 0 22 -23z"/>
<path d="M3248 4402 l-78 -3 0 -34 0 -35 85 0 85 0 0 34 c0 19 -3 36 -7 38 -5
2 -43 2 -85 0z"/>
<path d="M3410 4370 l0 -40 250 0 250 0 0 40 0 40 -250 0 -250 0 0 -40z"/>
<path d="M3170 4185 l0 -35 370 0 370 0 0 35 0 35 -370 0 -370 0 0 -35z"/>
<path d="M3339 4046 c-62 -16 -104 -48 -136 -104 -59 -99 -27 -236 69 -300 59
-38 164 -43 228 -10 159 82 159 318 0 395 -60 28 -106 34 -161 19z m81 -71 c0
-6 11 -17 25 -23 45 -20 25 -47 -34 -47 -46 0 -50 -21 -10 -42 83 -45 103
-101 51 -145 -15 -13 -31 -31 -35 -41 -8 -22 -38 -22 -44 1 -2 10 -18 23 -34
30 -21 7 -30 16 -27 29 3 14 13 18 53 18 66 0 74 25 16 55 -75 38 -89 97 -32
141 14 11 26 24 26 27 0 4 4 13 9 20 6 10 11 10 22 1 8 -6 14 -17 14 -24z"/>
<path d="M4222 2968 c-20 -20 -14 -66 9 -79 33 -17 69 3 69 39 0 33 -16 52
-45 52 -12 0 -26 -5 -33 -12z"/>
</g>
</svg>
